<?xml version="1.0" encoding="iso-8859-1"?>
<!-- Uploaded to: SVG Repo, www.svgrepo.com, Generator: SVG Repo Mixer Tools -->
<svg height="800px" width="800px" version="1.1" id="Layer_1" xmlns="http://www.w3.org/2000/svg" xmlns:xlink="http://www.w3.org/1999/xlink" 
	 viewBox="0 0 480 480" xml:space="preserve">
<path style="fill:#FEF0D8;" d="M360.208,39.776C334.472,14.128,300.296,0,264,0c-74.992,0-136,61.008-136,136v72h272v-72
	C400,99.704,385.872,65.528,360.208,39.776z"/>
<path style="fill:#FDC163;" d="M361.016,159.144C356.528,154.528,350.496,152,344,152H183.912c-9.776,0-18.648,5.832-22.072,14.52
	c-3.744,9.504-1.72,19.656,5.152,26.336c4.48,4.616,10.52,7.144,17.008,7.144h160.088c9.784,0,18.648-5.832,22.08-14.52
	C369.904,175.968,367.88,165.816,361.016,159.144z"/>
<path style="fill:#FCB23C;" d="M272,48.408V32c0-4.424-3.576-8-8-8s-8,3.576-8,8v16.408c-44.784,4.056-80,41.768-80,87.592v24h176
	v-24C352,90.176,316.784,52.464,272,48.408z"/>
<path style="fill:#BA414D;" d="M256,408v8c0,35.288,28.712,64,64,64h8c17.096,0,33.168-6.656,45.256-18.744
	C385.344,449.168,392,433.096,392,416v-8H256z"/>
<path style="fill:#FEDDE0;" d="M288,408v8c0,17.648,14.352,32,32,32h8c8.528,0,16.568-3.328,22.616-9.384
	C356.672,432.568,360,424.528,360,416v-8H288z"/>
<path style="fill:#F85766;" d="M452.592,395.888l-10.232-59.184C430.952,271.4,374.576,224,308.32,224H144.64
	c-52.848,0-92.584,32.616-96.624,79.432L39.408,424H428.96c7.144,0,13.856-3.144,18.448-8.624
	C451.944,409.936,453.84,402.832,452.592,395.888z"/>
<path style="fill:#F97985;" d="M72.016,319.432C76.056,272.616,115.792,240,168.64,240h163.68c22.856,0,44.464,5.744,63.528,15.816
	C372.056,235.832,341.424,224,308.32,224H144.64c-52.848,0-92.584,32.616-96.624,79.432L39.408,424h25.144L72.016,319.432z"/>
<path style="fill:#BA414D;" d="M453.336,398.432c-4.152-26.264-17.608-50.28-37.904-67.64C395.144,313.512,369.32,304,342.72,304
	H296c-59.056,0-107.464,45.976-111.592,104H152v-56c0-30.872-25.12-56-56-56H56h-7.448l-0.528,7.424l0,0l-2.52,35.24L40.552,408H0
	v48h216c13.232,0,24-10.768,24-24v-8h191.52c6.464,0,12.576-2.832,16.792-7.76S454.352,404.824,453.336,398.432z"/>
<g>
	<path style="fill:#F85766;" d="M320,360h-32c-4.424,0-8-3.576-8-8s3.576-8,8-8h32c4.424,0,8,3.576,8,8S324.424,360,320,360z"/>
	<path style="fill:#F85766;" d="M320,392h-32c-4.424,0-8-3.576-8-8s3.576-8,8-8h32c4.424,0,8,3.576,8,8S324.424,392,320,392z"/>
	<path style="fill:#F85766;" d="M424,200H136h-8v-56h-8c-17.68,0-32,14.32-32,32v24H24c-4.4,0-8.4,1.76-11.28,4.72
		C9.76,207.6,8,211.6,8,216c0,8.8,7.2,16,16,16h112h288c4.4,0,8.4-1.76,11.28-4.72c2.96-2.88,4.72-6.88,4.72-11.28
		C440,207.2,432.8,200,424,200z"/>
</g>
<path style="fill:#FCB23C;" d="M264,48c-48.52,0-88,39.48-88,88v24h176v-24C352,87.48,312.52,48,264,48z"/>
<path style="fill:#FDC163;" d="M264,48c-48.52,0-88,39.48-88,88v16c0-48.52,39.48-88,88-88s88,39.48,88,88v-16
	C352,87.48,312.52,48,264,48z"/>
<g>
	<path style="fill:#F85766;" d="M472,40h-40c-4.424,0-8,3.576-8,8v32v120c0,4.424,3.576,8,8,8s8-3.576,8-8V88h32
		c4.424,0,8-3.576,8-8V48C480,43.576,476.424,40,472,40z"/>
	<path style="fill:#F85766;" d="M112,384c-4.416,0-8-3.576-8-8v-16c0-4.424,3.584-8,8-8s8,3.576,8,8v16
		C120,380.424,116.416,384,112,384z"/>
</g>
<g>
	<path style="fill:#FCB641;" d="M56,16c-2.16,0-4.16-0.808-5.68-2.32C48.8,12.16,48,10.16,48,8c0-1.04,0.24-2.08,0.64-3.04
		c0.4-1.04,0.96-1.84,1.68-2.64c2.24-2.24,5.76-2.88,8.72-1.68c0.96,0.4,1.84,0.96,2.64,1.68c0.72,0.8,1.28,1.68,1.68,2.64
		C63.84,5.92,64,6.96,64,8c0,2.16-0.8,4.16-2.32,5.68C60.16,15.192,58.16,16,56,16z"/>
	<path style="fill:#FCB641;" d="M56,112c-1.04,0-2.08-0.24-3.04-0.64s-1.84-0.96-2.64-1.68c-0.72-0.808-1.28-1.68-1.68-2.64
		S48,105.04,48,104c0-2.08,0.88-4.168,2.32-5.68c2.24-2.24,5.76-2.96,8.72-1.68c0.96,0.4,1.84,0.96,2.64,1.68
		c1.44,1.512,2.32,3.6,2.32,5.68c0,1.04-0.24,2.08-0.64,3.04s-0.96,1.832-1.68,2.64C60.16,111.192,58.16,112,56,112z"/>
	<path style="fill:#FCB641;" d="M104,64c-1.04,0-2.08-0.24-3.04-0.64s-1.84-0.96-2.64-1.68C96.8,60.16,96,58.16,96,56
		c0-1.04,0.24-2.08,0.64-3.04s0.96-1.84,1.68-2.64c0.4-0.32,0.8-0.72,1.2-0.96c0.48-0.32,0.96-0.56,1.44-0.72
		c0.48-0.24,0.96-0.4,1.52-0.488c0.96-0.232,2.08-0.232,3.12,0c0.48,0.088,0.96,0.24,1.44,0.488c0.48,0.16,0.96,0.4,1.44,0.72
		c0.4,0.24,0.8,0.64,1.2,0.96c0.72,0.8,1.28,1.68,1.68,2.64c0.48,0.96,0.64,2,0.64,3.04c0,2.16-0.8,4.16-2.32,5.68
		C108.16,63.192,106.16,64,104,64z"/>
	<path style="fill:#FCB641;" d="M8,64c-1.04,0-2.08-0.24-3.04-0.64C4,62.96,3.12,62.4,2.32,61.68C0.8,60.16,0,58.16,0,56
		c0-1.04,0.24-2.08,0.64-3.04c0.4-1.04,0.96-1.84,1.68-2.64c0.4-0.32,0.8-0.72,1.28-0.96c0.4-0.32,0.88-0.56,1.36-0.72
		c0.48-0.24,0.96-0.4,1.44-0.48C8,47.832,9.6,48,11.04,48.64c0.96,0.4,1.84,0.96,2.64,1.68c0.72,0.8,1.28,1.6,1.68,2.64
		c0.4,0.96,0.64,2,0.64,3.04c0,2.16-0.8,4.16-2.32,5.68C12.16,63.192,10.16,64,8,64z"/>
	<path style="fill:#FCB641;" d="M88,96c-1.04,0-2.08-0.24-3.04-0.64s-1.84-0.96-2.64-1.68C80.8,92.16,80,90.16,80,88
		c0-1.04,0.24-2.08,0.64-3.04c0.4-1.04,0.96-1.84,1.68-2.64c0.8-0.72,1.68-1.28,2.64-1.68C86.4,80,88,79.832,89.6,80.16
		c0.48,0.088,0.96,0.24,1.44,0.488c0.48,0.16,0.96,0.4,1.44,0.72c0.4,0.24,0.8,0.64,1.2,0.96c0.72,0.8,1.28,1.68,1.68,2.64
		C95.84,85.92,96,86.96,96,88c0,2.16-0.8,4.16-2.32,5.68c-0.8,0.72-1.68,1.28-2.64,1.68S89.04,96,88,96z"/>
	<path style="fill:#FCB641;" d="M24,32c-1.04,0-2.08-0.24-3.04-0.64c-0.96-0.4-1.84-0.96-2.64-1.68C16.8,28.16,16,26.16,16,24
		c0-2.08,0.88-4.168,2.32-5.68c2.96-2.96,8.32-2.96,11.36,0C31.12,19.832,32,21.92,32,24c0,2.16-0.8,4.16-2.32,5.68
		c-0.8,0.72-1.68,1.28-2.64,1.68S25.04,32,24,32z"/>
	<path style="fill:#FCB641;" d="M24,96c-1.04,0-2.08-0.24-3.04-0.64s-1.84-0.96-2.64-1.68C16.8,92.16,16,90.16,16,88
		c0-1.04,0.24-2.08,0.64-3.04c0.4-1.04,0.96-1.84,1.68-2.64c0.8-0.72,1.68-1.28,2.64-1.68C22.4,80,24,79.832,25.6,80.16
		c0.48,0.088,0.96,0.24,1.44,0.488c0.48,0.16,0.96,0.4,1.44,0.72c0.4,0.24,0.8,0.64,1.2,0.96c0.72,0.8,1.28,1.68,1.68,2.64
		C31.84,85.92,32,86.96,32,88c0,2.16-0.8,4.16-2.32,5.68c-0.8,0.72-1.68,1.28-2.64,1.68S25.04,96,24,96z"/>
	<path style="fill:#FCB641;" d="M88,32c-2.16,0-4.16-0.808-5.68-2.32C80.8,28.16,80,26.16,80,24c0-2.08,0.88-4.168,2.32-5.68
		c0.4-0.32,0.8-0.72,1.28-0.96c0.4-0.32,0.88-0.56,1.36-0.72c0.48-0.24,0.96-0.4,1.44-0.488c2.64-0.552,5.44,0.32,7.28,2.168
		C95.12,19.832,96,21.92,96,24c0,2.16-0.8,4.16-2.32,5.68c-0.8,0.72-1.68,1.28-2.64,1.68S89.04,32,88,32z"/>
</g>
</svg>