<?xml version="1.0" encoding="utf-8"?><!-- Uploaded to: SVG Repo, www.svgrepo.com, Generator: SVG Repo Mixer Tools -->
<svg width="800px" height="800px" viewBox="0 0 24 24" id="Flat_Color" data-name="Flat Color" xmlns="http://www.w3.org/2000/svg"><path id="primary" d="M20.9,20.56l-3.6-7.38a2,2,0,0,0-3.6,0l-.37.77-1.57-2.9a2,2,0,0,0-3.52,0L3.12,20.52a1,1,0,0,0,0,1A1,1,0,0,0,4,22H20a1,1,0,0,0,.9-1.44Z" style="fill:#000000"></path><path id="secondary" d="M21,22H3a1,1,0,0,1,0-2H21a1,1,0,0,1,0,2ZM18,2a4,4,0,1,0,4,4A4,4,0,0,0,18,2Z" style="fill:#2ca9bc"></path></svg>